<svg width="20" height="16" viewBox="0 0 20 16" fill="none" xmlns="http://www.w3.org/2000/svg"><path d="M16.3636 4.75L12.7273 8.5H15.4545C15.4545 11.6031 13.0091 14.125 10 14.125C9.08182 14.125 8.20909 13.8906 7.45455 13.4687L6.12727 14.8375C7.24545 15.5688 8.57273 16 10 16C14.0182 16 17.2727 12.6438 17.2727 8.5H20L16.3636 4.75ZM4.54545 7.5C4.54545 4.39688 6.99091 1.875 10 1.875C10.9182 1.875 11.7909 2.10937 12.5455 2.53125L13.8727 1.1625C12.7545 0.43125 11.4273 0 10 0C5.98182 0 2.72727 3.35625 2.72727 7.5H0L3.63636 11.25L7.27273 7.5H4.54545Z" fill="#8257E5"/></svg>