<svg width="12" height="16" viewBox="0 0 12 16" fill="none" xmlns="http://www.w3.org/2000/svg"><path d="M11.9658 9.2308C11.7825 7.08321 10.6715 5.7374 9.69141 4.54979C8.78384 3.45033 8 2.50089 8 1.10032C8 0.987818 7.93 0.884993 7.819 0.83344C7.70766 0.781578 7.57387 0.790072 7.47266 0.856278C6.00066 1.80426 4.77247 3.40201 4.34344 4.9265C4.04559 5.98785 4.00619 7.18103 4.00066 7.96906C2.64128 7.70775 2.33334 5.87771 2.33009 5.85777C2.31478 5.76285 2.25034 5.68025 2.15659 5.63514C2.06188 5.59061 1.95053 5.58738 1.8545 5.63016C1.78322 5.66121 0.104812 6.42874 0.00715613 9.49327C0.000312384 9.59522 0 9.69748 0 9.79971C0 12.7769 2.69172 15.1993 6 15.1993C6.00456 15.1996 6.00944 15.2002 6.01334 15.1993C6.01466 15.1993 6.01594 15.1993 6.01756 15.1993C9.31772 15.1908 12 12.7717 12 9.79971C12 9.65001 11.9658 9.2308 11.9658 9.2308ZM6 14.5994C4.89713 14.5994 4 13.7393 4 12.682C4 12.646 3.99969 12.6097 4.00259 12.5652C4.01594 12.1193 4.11003 11.8149 4.21322 11.6125C4.40659 11.9863 4.75228 12.3299 5.31381 12.3299C5.49806 12.3299 5.64716 12.1957 5.64716 12.0299C5.64716 11.6028 5.65694 11.1101 5.77509 10.6654C5.88025 10.2711 6.13153 9.85155 6.44991 9.51526C6.5915 9.95176 6.86756 10.305 7.13709 10.6498C7.52284 11.1432 7.92159 11.6532 7.99159 12.523C7.99581 12.5745 8.00006 12.6264 8.00006 12.682C8 13.7393 7.10287 14.5994 6 14.5994Z" fill="#E1E1E6"/></svg>