<svg width="20" height="20" viewBox="0 0 20 20" fill="none" xmlns="http://www.w3.org/2000/svg"><path d="M4.16667 2.5H15.8333C16.75 2.5 17.5 3.21429 17.5 4.0873V15.1984C17.5 16.0714 16.75 16.7857 15.8333 16.7857H12.5L10 19.1667L7.5 16.7857H4.16667C3.24167 16.7857 2.5 16.0714 2.5 15.1984V4.0873C2.5 3.21429 3.24167 2.5 4.16667 2.5Z" fill="#8257E6"/><path d="M8.90118 11.9153C8.90118 11.2881 8.98504 10.7885 9.15275 10.4167C9.32047 10.0448 9.6263 9.67966 10.0703 9.32124C10.5191 8.95833 10.8176 8.66487 10.9656 8.44086C11.1135 8.21237 11.1875 7.97267 11.1875 7.72177C11.1875 6.96461 10.8028 6.58602 10.0333 6.58602C9.66823 6.58602 9.37473 6.68907 9.15275 6.89516C8.93571 7.09677 8.82226 7.37679 8.81239 7.73521H6.66663C6.67649 6.87948 6.97986 6.20968 7.57673 5.72581C8.17853 5.24194 8.99737 5 10.0333 5C11.079 5 11.8905 5.23073 12.4676 5.6922C13.0447 6.14919 13.3333 6.79659 13.3333 7.63441C13.3333 8.01523 13.2396 8.3759 13.0521 8.7164C12.8647 9.05242 12.5366 9.42652 12.068 9.83871L11.4687 10.3562C11.0938 10.6832 10.8792 11.0663 10.825 11.5054L10.7954 11.9153H8.90118ZM8.6866 13.9785C8.6866 13.6783 8.79759 13.4319 9.01957 13.2392C9.24648 13.0421 9.53504 12.9435 9.88527 12.9435C10.2355 12.9435 10.5216 13.0421 10.7436 13.2392C10.9705 13.4319 11.0839 13.6783 11.0839 13.9785C11.0839 14.2742 10.973 14.5184 10.751 14.711C10.5339 14.9037 10.2454 15 9.88527 15C9.52518 15 9.23414 14.9037 9.01217 14.711C8.79513 14.5184 8.6866 14.2742 8.6866 13.9785Z" fill="#29292E"/></svg>