<svg xmlns="http://www.w3.org/2000/svg" width="24" height="24" viewBox="0 0 24 24" fill="none" data-tip="true" data-for="profile-strength-info" class="sc-heOwwK zrSqV" currentItem="false"><circle r="12" transform="matrix(1 0 0 -1 12 12)" fill="#29292E"/><path d="M11.0111 13.9153C11.0111 13.2881 11.0866 12.7885 11.2375 12.4167C11.3885 12.0448 11.6637 11.6797 12.0633 11.3212C12.4673 10.9583 12.7358 10.6649 12.869 10.4409C13.0022 10.2124 13.0688 9.97267 13.0688 9.72177C13.0688 8.96461 12.7225 8.58602 12.03 8.58602C11.7014 8.58602 11.4373 8.68907 11.2375 8.89516C11.0422 9.09677 10.9401 9.37679 10.9312 9.73521H9C9.00888 8.87948 9.28191 8.20968 9.81909 7.72581C10.3607 7.24194 11.0977 7 12.03 7C12.9711 7 13.7014 7.23073 14.2209 7.6922C14.7403 8.14919 15 8.79659 15 9.63441C15 10.0152 14.9156 10.3759 14.7469 10.7164C14.5782 11.0524 14.283 11.4265 13.8613 11.8387L13.3219 12.3562C12.9845 12.6832 12.7913 13.0663 12.7425 13.5054L12.7159 13.9153H11.0111ZM10.818 15.9785C10.818 15.6783 10.9179 15.4319 11.1176 15.2392C11.3219 15.0421 11.5816 14.9435 11.8968 14.9435C12.212 14.9435 12.4695 15.0421 12.6693 15.2392C12.8735 15.4319 12.9756 15.6783 12.9756 15.9785C12.9756 16.2742 12.8757 16.5184 12.6759 16.711C12.4806 16.9037 12.2209 17 11.8968 17C11.5727 17 11.3108 16.9037 11.111 16.711C10.9156 16.5184 10.818 16.2742 10.818 15.9785Z" fill="#A8A8B3"/></svg>