<svg width="16" height="16" viewBox="0 0 16 16" fill="none" xmlns="http://www.w3.org/2000/svg"><path d="M15.1667 9.33333H0.833333C0.375 9.33333 0 9.70833 0 10.1667V15.1667C0 15.625 0.375 16 0.833333 16H15.1667C15.625 16 16 15.625 16 15.1667V10.1667C16 9.70833 15.625 9.33333 15.1667 9.33333ZM3.33333 14.3333C2.41667 14.3333 1.66667 13.5833 1.66667 12.6667C1.66667 11.75 2.41667 11 3.33333 11C4.25 11 5 11.75 5 12.6667C5 13.5833 4.25 14.3333 3.33333 14.3333ZM15.1667 0H0.833333C0.375 0 0 0.375 0 0.833333V5.83333C0 6.29167 0.375 6.66667 0.833333 6.66667H15.1667C15.625 6.66667 16 6.29167 16 5.83333V0.833333C16 0.375 15.625 0 15.1667 0ZM3.33333 5C2.41667 5 1.66667 4.25 1.66667 3.33333C1.66667 2.41667 2.41667 1.66667 3.33333 1.66667C4.25 1.66667 5 2.41667 5 3.33333C5 4.25 4.25 5 3.33333 5Z" fill="#8257E5"/></svg>