<svg width="184" height="108" viewBox="0 0 184 108" fill="none" xmlns="http://www.w3.org/2000/svg">
<path fill-rule="evenodd" clip-rule="evenodd" d="M24.8213 28.2935V18.93L0.177572 28.5545H0.118896L0.118896 38.1499H0.177572L24.8213 47.7744V38.4108L12.1767 33.3377L24.8213 28.2935Z" fill="#8257E5"/>
<path fill-rule="evenodd" clip-rule="evenodd" d="M159.077 47.2815V37.918L171.693 32.8738L159.077 27.8297V18.4662L183.692 28.0906H183.75V37.7151H183.692L159.077 47.2815ZM148.516 5.24704L134.023 54.0071H142.619L157.082 5.24704H148.516Z" fill="#8257E5"/>
<path fill-rule="evenodd" clip-rule="evenodd" d="M61.0243 17.1616C63.4593 19.9736 64.7502 23.7132 64.6035 27.5108V48.2671H56.0075V29.3951C56.0955 27.3078 55.4794 25.2206 54.2179 23.5972C53.6311 22.8725 52.8977 22.3217 52.0762 21.9448C51.2548 21.568 50.3453 21.394 49.4358 21.423C44.067 21.423 41.3679 25.3366 41.3679 33.1637V48.2671H32.772V14.1757H41.3679V17.2486C42.7175 15.8571 44.3311 14.7845 46.0913 14.0887C47.8516 13.393 49.7292 13.0741 51.6068 13.1611C53.3671 13.0741 55.098 13.393 56.7409 14.0887C58.3252 14.7845 59.8214 15.8281 61.0243 17.1616Z" fill="white"/>
<path fill-rule="evenodd" clip-rule="evenodd" d="M71.3228 -1.14441e-05V48.76H79.9187V-1.14441e-05H71.3228Z" fill="white"/>
<path fill-rule="evenodd" clip-rule="evenodd" d="M125.937 46.9627H118.779L111.738 26.8731L104.638 46.9627H97.4795L85.4216 12.8133H94.6044L101.381 33.2508L108.364 12.8133H115.082L122.064 33.3087L128.842 12.8133H137.995L125.937 46.9627Z" fill="white"/>
<path d="M58.3068 86.7907V106.888H49.5597V88.6408C49.5597 84.0124 46.9083 80.8973 42.8661 80.8973C37.9008 80.8973 34.6517 84.2075 34.6517 92.2821V106.912H25.9045V58.7806H34.6517V76.86C37.2379 74.2828 40.6823 72.8937 45.0559 72.8937C53.0041 72.8937 58.3068 78.586 58.3068 86.7907Z" fill="url(#paint0_linear_7576:7523)"/>
<path d="M95.2838 92.7491H70.1018C70.9599 97.5134 74.3452 100.434 78.3873 100.434C80.9677 100.434 84.2168 100.103 86.6018 96.0652L94.4198 97.7145C91.508 104.601 85.6075 107.911 78.3873 107.911C69.0424 107.911 61.4198 100.818 61.4198 90.4378C61.4198 80.0579 69.0424 72.8996 78.5175 72.8996C87.3297 72.8996 94.9524 79.7151 95.2838 89.7758V92.7491ZM70.3681 86.5897H86.3473C85.2229 82.3573 82.0389 80.5012 78.5294 80.5012C75.2033 80.5012 71.4275 82.4874 70.3681 86.5897Z" fill="url(#paint1_linear_7576:7523)"/>
<path d="M131.61 105.919C130.017 106.831 128.214 107.31 126.378 107.308C123.129 107.308 120.744 106.185 119.483 103.401C117.163 105.984 113.565 107.905 108.351 107.905C101.326 107.905 96.6214 103.803 96.6214 97.6435C96.6214 91.4841 101.196 87.7187 109.482 87.0567L118.59 86.3296V85.9986C118.59 82.6884 116.536 80.2352 112.672 80.2352C109.493 80.2352 107.304 81.9613 106.641 85.2656L98.5566 83.6164C99.9474 76.9309 105.315 72.8937 113.003 72.8937C121.087 72.8937 126.923 77.327 126.923 85.3365V97.1174C126.923 98.5065 127.449 99.2336 128.248 99.2336C128.645 99.2336 129.308 99.1686 130.894 99.0326L131.61 105.919ZM118.59 93.5412V92.2821L110.174 93.2101C106.795 93.6062 105.333 95.1963 105.333 97.3125C105.333 99.6296 107.256 100.954 110.174 100.954C115.039 100.954 118.59 97.7676 118.59 93.5412Z" fill="url(#paint2_linear_7576:7523)"/>
<path d="M144.778 94.7352C144.778 97.9745 146.305 99.7656 148.956 99.7656C150.883 99.6446 152.76 99.1018 154.454 98.1755L156.975 105.452C153.525 107.308 151.14 107.905 148.358 107.905C140.475 107.905 136.031 103.401 136.031 95.3973V81.0332H128.929V73.8867H136.031V61.9049L144.778 59.2567V73.8867H157.567V81.0332H144.778V94.7352Z" fill="url(#paint3_linear_7576:7523)"/>
<defs>
<linearGradient id="paint0_linear_7576:7523" x1="170.296" y1="134.609" x2="45.9354" y2="53.1626" gradientUnits="userSpaceOnUse">
<stop stop-color="#FF008E"/>
<stop offset="1" stop-color="#8257E5"/>
</linearGradient>
<linearGradient id="paint1_linear_7576:7523" x1="170.296" y1="134.609" x2="45.9354" y2="53.1626" gradientUnits="userSpaceOnUse">
<stop stop-color="#FF008E"/>
<stop offset="1" stop-color="#8257E5"/>
</linearGradient>
<linearGradient id="paint2_linear_7576:7523" x1="170.296" y1="134.609" x2="45.9354" y2="53.1626" gradientUnits="userSpaceOnUse">
<stop stop-color="#FF008E"/>
<stop offset="1" stop-color="#8257E5"/>
</linearGradient>
<linearGradient id="paint3_linear_7576:7523" x1="170.296" y1="134.609" x2="45.9354" y2="53.1626" gradientUnits="userSpaceOnUse">
<stop stop-color="#FF008E"/>
<stop offset="1" stop-color="#8257E5"/>
</linearGradient>
</defs>
</svg>
