<svg width="193" height="104" viewBox="0 0 193 104" fill="none" xmlns="http://www.w3.org/2000/svg">
<path fill-rule="evenodd" clip-rule="evenodd" d="M25.8534 29.6475V19.8358L0.0614094 29.9209H0L0 39.9755H0.0614094L25.8534 50.0605V40.2489L12.6196 34.933L25.8534 29.6475Z" fill="url(#paint0_linear)"/>
<path fill-rule="evenodd" clip-rule="evenodd" d="M166.365 49.5441V39.7325L179.568 34.4469L166.365 29.1614V19.3498L192.126 29.4348H192.187V39.5198H192.126L166.365 49.5441ZM155.311 5.49814L140.143 56.5914H149.139L164.277 5.49814H155.311Z" fill="url(#paint1_linear)"/>
<path fill-rule="evenodd" clip-rule="evenodd" d="M63.743 17.9829C66.2914 20.9294 67.6425 24.8479 67.4889 28.8273V50.5769H58.4924V30.8017C58.5846 28.6146 57.9398 26.4275 56.6195 24.7264C56.0054 23.967 55.2378 23.3899 54.378 22.995C53.5183 22.6001 52.5664 22.4178 51.6146 22.4482C45.9956 22.4482 43.1708 26.549 43.1708 34.7507V50.5769H34.1743V14.8541H43.1708V18.074C44.5832 16.6159 46.272 15.492 48.1143 14.7629C49.9565 14.0339 51.9216 13.6998 53.8867 13.7909C55.729 13.6998 57.5406 14.0339 59.2601 14.7629C60.9181 15.492 62.4841 16.5856 63.743 17.9829Z" fill="white"/>
<path fill-rule="evenodd" clip-rule="evenodd" d="M74.521 0V51.0933H83.5175V0L74.521 0Z" fill="white"/>
<path fill-rule="evenodd" clip-rule="evenodd" d="M131.681 49.2099H124.189L116.819 28.159L109.389 49.2099H101.897L89.2773 13.4264H98.8879L105.981 34.8419L113.288 13.4264H120.32L127.628 34.9026L134.72 13.4264H144.3L131.681 49.2099Z" fill="white"/>
<path d="M15.4889 66.7167H10.412V72.6918H4.93506V76.8073H10.412V94.9154H15.4889V76.8073H20.935V72.6918H15.4889V66.7167Z" fill="url(#paint2_linear)"/>
<path d="M41.4889 73.5759C39.5196 72.6613 37.2735 72.204 34.7504 72.204C32.2273 72.204 29.9812 72.6613 27.9812 73.5759C26.012 74.4904 24.4427 75.8318 23.2735 77.5694C22.1043 79.3071 21.5504 81.4105 21.5504 83.8493C21.5504 86.3186 22.135 88.4221 23.2735 90.1597C24.4427 91.8974 26.012 93.2083 27.9812 94.0923C29.9504 94.9764 32.2273 95.4337 34.7504 95.4337C37.2735 95.4337 39.5196 94.9764 41.4889 94.0923C43.4581 93.2083 44.9966 91.8974 46.1658 90.1597C47.3042 88.4221 47.8889 86.3491 47.8889 83.8493C47.8889 81.4105 47.3042 79.3071 46.1658 77.5694C44.9966 75.8318 43.4581 74.5209 41.4889 73.5759ZM41.6427 87.9343C40.935 89.0623 39.9504 89.8854 38.7504 90.4646C37.5504 91.0438 36.1966 91.3487 34.7504 91.3487C33.2735 91.3487 31.9196 91.0438 30.7196 90.4646C29.5196 89.8854 28.535 89.0318 27.8274 87.9343C27.1197 86.8064 26.7504 85.4651 26.7504 83.8493C26.7504 82.2336 27.1197 80.8618 27.8581 79.7339C28.5966 78.6059 29.5812 77.7523 30.7812 77.1426C32.012 76.5329 33.335 76.2586 34.7812 76.2586C36.2889 76.2586 37.6119 76.5634 38.8119 77.1426C40.0119 77.7523 40.9658 78.6059 41.6735 79.7643C42.3812 80.9228 42.7504 82.2641 42.7504 83.8493C42.7196 85.4651 42.3504 86.8369 41.6427 87.9343Z" fill="url(#paint3_linear)"/>
<path d="M62.4735 72.326C61.8888 72.2345 61.2735 72.204 60.6581 72.204C58.4427 72.204 56.4735 72.6004 54.7812 73.4234C53.0889 74.2161 51.7658 75.344 50.7812 76.8073C49.8273 78.2706 49.335 79.9777 49.335 81.9897C49.335 83.9713 49.8273 85.7089 50.8119 87.1112C51.7965 88.544 53.1196 89.6415 54.8427 90.3731C55.3658 90.5865 55.8889 90.7694 56.4427 90.9219C55.6427 90.9219 54.8735 90.9828 54.1658 91.0743C52.935 91.2572 51.9504 91.6535 51.2119 92.2632C50.4735 92.8729 50.0735 93.757 50.0735 94.9154C50.0735 95.5251 50.1966 96.0739 50.4427 96.5616C50.6889 97.0799 51.0581 97.5067 51.5812 97.8725C52.1042 98.2383 52.7812 98.5127 53.6427 98.7261C54.5042 98.909 55.5504 99.0309 56.7812 99.0309H62.9658C64.535 99.0309 65.735 99.3358 66.6273 99.915C67.4888 100.525 67.9196 101.531 67.9196 102.963V104H72.9965V101.988C72.9965 100.189 72.6273 98.787 71.8581 97.781C71.1196 96.7445 70.0427 96.0129 68.6581 95.5861C67.2734 95.1593 65.6427 94.9459 63.7965 94.9459H57.3042C56.6581 94.9459 56.135 94.824 55.7658 94.5496C55.3965 94.2752 55.2119 93.9094 55.2119 93.4826C55.2119 92.751 55.6735 92.2327 56.5965 91.9889C57.5196 91.745 58.8735 91.5925 60.6889 91.5316C62.8735 91.5316 64.8119 91.1658 66.5042 90.4036C68.1965 89.672 69.4888 88.5745 70.4427 87.2027C71.3965 85.8004 71.8581 84.1237 71.8581 82.2031C71.8581 81.0142 71.6119 79.9472 71.1504 79.0327C70.6581 78.1181 70.0119 77.2951 69.1811 76.5634C68.7196 76.1671 68.2581 75.8013 67.735 75.466C68.5658 75.7708 69.4273 76.0756 70.4119 76.35C71.8888 76.7768 73.335 76.9902 74.7811 76.9902V72.7528L64.1965 72.7223C63.6119 72.5394 63.0581 72.4174 62.4735 72.326ZM66.0735 78.9108C66.6273 79.7643 66.8735 80.7704 66.8735 81.9593C66.8735 83.1482 66.5965 84.1542 66.0735 85.0078C65.5196 85.8309 64.7812 86.4711 63.8581 86.8979C62.9042 87.3246 61.8581 87.538 60.6889 87.538C59.4581 87.538 58.3812 87.3246 57.4581 86.8979C56.535 86.4711 55.7965 85.8309 55.2427 85.0078C54.6889 84.1847 54.4427 83.1482 54.4427 81.9593C54.4427 80.7704 54.7196 79.7643 55.2427 78.9108C55.7965 78.0572 56.535 77.417 57.4581 76.9597C58.4119 76.5024 59.4889 76.289 60.6889 76.289C61.8889 76.289 62.9658 76.5024 63.8888 76.9597C64.7811 77.417 65.5196 78.0877 66.0735 78.9108Z" fill="url(#paint4_linear)"/>
<path d="M95.5196 73.6064C93.7042 72.6613 91.458 72.204 88.7811 72.204C86.1657 72.204 83.858 72.6918 81.8888 73.6368C79.9196 74.5819 78.3504 75.9537 77.2119 77.6914C76.0735 79.4595 75.5196 81.502 75.5196 83.8493C75.5196 86.2272 76.1042 88.2697 77.2427 90.0073C78.4119 91.745 79.9811 93.0558 82.0119 94.0009C84.0119 94.9459 86.3503 95.4032 88.9657 95.4032C91.2427 95.4032 93.2119 95.0679 94.8119 94.3972C96.4426 93.7265 97.735 92.812 98.7196 91.623C99.7042 90.4341 100.289 89.0928 100.535 87.5685H95.6119C95.2119 88.666 94.4427 89.5805 93.2427 90.2817C92.0427 90.9829 90.5965 91.3182 88.8427 91.3182C87.2427 91.3182 85.8581 91.0438 84.6888 90.4646C83.5196 89.8854 82.5965 89.1233 81.8888 88.1477C81.2119 87.1722 80.7811 86.0443 80.6273 84.7944H100.597C100.75 81.9593 100.381 79.6119 99.5196 77.7523C98.658 75.9537 97.335 74.5514 95.5196 73.6064ZM80.9657 81.5325C81.3657 79.9777 82.2273 78.7279 83.5196 77.7523C84.8427 76.7768 86.535 76.289 88.5965 76.289C90.5658 76.289 92.1965 76.7463 93.4273 77.6609C94.658 78.5754 95.335 79.8863 95.4888 81.5325H80.9657Z" fill="url(#paint5_linear)"/>
<path d="M111.889 66.7167H106.812V72.6918H101.335V76.8073H106.812V94.9154H111.889V76.8073H117.335V72.6918H111.889V66.7167Z" fill="url(#paint6_linear)"/>
<path d="M141.027 74.338C140.227 73.6368 139.273 73.1186 138.166 72.7528C137.058 72.387 135.827 72.204 134.504 72.204C133.12 72.204 131.858 72.4479 130.689 72.9052C129.52 73.3625 128.535 73.9722 127.704 74.7648C126.873 75.5269 126.196 76.411 125.673 77.417C125.396 77.9657 125.181 78.5449 124.996 79.0937V63.7597H119.92V94.9154H124.996V81.6544C125.212 81.0142 125.52 80.435 125.95 79.8558C126.689 78.9108 127.612 78.1486 128.781 77.5694C129.92 76.9902 131.212 76.7158 132.627 76.7158C134.012 76.7158 135.12 76.9292 135.95 77.3255C136.781 77.7218 137.427 78.3316 137.827 79.1242C138.227 79.9168 138.443 80.8923 138.443 82.0812V94.8849H143.55V80.4655C143.55 79.0937 143.335 77.9048 142.904 76.8683C142.443 75.8927 141.827 75.0087 141.027 74.338Z" fill="url(#paint7_linear)"/>
<path d="M166.073 73.6064C164.258 72.6613 162.012 72.204 159.335 72.204C156.72 72.204 154.412 72.6918 152.443 73.6368C150.473 74.5819 148.904 75.9537 147.766 77.6914C146.627 79.4595 146.073 81.502 146.073 83.8493C146.073 86.2272 146.658 88.2697 147.796 90.0073C148.966 91.745 150.535 93.0558 152.566 94.0009C154.566 94.9459 156.904 95.4032 159.52 95.4032C161.796 95.4032 163.766 95.0679 165.366 94.3972C166.996 93.7265 168.289 92.812 169.273 91.623C170.258 90.4341 170.843 89.0928 171.089 87.5685H166.166C165.766 88.666 164.996 89.5805 163.796 90.2817C162.596 90.9829 161.15 91.3182 159.396 91.3182C157.796 91.3182 156.412 91.0438 155.243 90.4646C154.073 89.8854 153.15 89.1233 152.443 88.1477C151.766 87.1722 151.335 86.0443 151.181 84.7944H171.15C171.304 81.9593 170.935 79.6119 170.073 77.7523C169.243 75.9537 167.889 74.5514 166.073 73.6064ZM151.55 81.5325C151.95 79.9777 152.812 78.7279 154.104 77.7523C155.427 76.7768 157.12 76.289 159.181 76.289C161.15 76.289 162.781 76.7463 164.012 77.6609C165.243 78.5754 165.919 79.8863 166.073 81.5325H151.55Z" fill="url(#paint8_linear)"/>
<path d="M183.735 72.9052C182.781 73.393 181.981 74.0027 181.335 74.7648C180.689 75.5269 180.166 76.3195 179.766 77.1121C179.396 77.8438 179.15 78.5449 178.966 79.1851V72.6918H173.858V94.9154H178.935V82.508C179.212 81.8678 179.581 81.1667 180.073 80.496C180.781 79.5205 181.704 78.6669 182.873 77.9962C184.043 77.3255 185.427 76.9597 187.089 76.9597V72.1735C185.827 72.204 184.689 72.4479 183.735 72.9052Z" fill="url(#paint9_linear)"/>
<defs>
<linearGradient id="paint0_linear" x1="-6.99606e-10" y1="28.0983" x2="397.016" y2="29.0225" gradientUnits="userSpaceOnUse">
<stop stop-color="#8257E6"/>
<stop offset="0.568204" stop-color="#4763FF"/>
<stop offset="0.939176" stop-color="#04D361"/>
</linearGradient>
<linearGradient id="paint1_linear" x1="-6.99606e-10" y1="28.0983" x2="397.016" y2="29.0225" gradientUnits="userSpaceOnUse">
<stop stop-color="#8257E6"/>
<stop offset="0.568204" stop-color="#4763FF"/>
<stop offset="0.939176" stop-color="#04D361"/>
</linearGradient>
<linearGradient id="paint2_linear" x1="-215.065" y1="83.9408" x2="187.089" y2="84.0398" gradientUnits="userSpaceOnUse">
<stop stop-color="#8257E6"/>
<stop offset="0.526042" stop-color="#4763FF"/>
<stop offset="1" stop-color="#04D361"/>
</linearGradient>
<linearGradient id="paint3_linear" x1="-215.065" y1="83.9408" x2="187.089" y2="84.0398" gradientUnits="userSpaceOnUse">
<stop stop-color="#8257E6"/>
<stop offset="0.526042" stop-color="#4763FF"/>
<stop offset="1" stop-color="#04D361"/>
</linearGradient>
<linearGradient id="paint4_linear" x1="-215.065" y1="83.9408" x2="187.089" y2="84.0398" gradientUnits="userSpaceOnUse">
<stop stop-color="#8257E6"/>
<stop offset="0.526042" stop-color="#4763FF"/>
<stop offset="1" stop-color="#04D361"/>
</linearGradient>
<linearGradient id="paint5_linear" x1="-215.065" y1="83.9408" x2="187.089" y2="84.0398" gradientUnits="userSpaceOnUse">
<stop stop-color="#8257E6"/>
<stop offset="0.526042" stop-color="#4763FF"/>
<stop offset="1" stop-color="#04D361"/>
</linearGradient>
<linearGradient id="paint6_linear" x1="-215.065" y1="83.9408" x2="187.089" y2="84.0398" gradientUnits="userSpaceOnUse">
<stop stop-color="#8257E6"/>
<stop offset="0.526042" stop-color="#4763FF"/>
<stop offset="1" stop-color="#04D361"/>
</linearGradient>
<linearGradient id="paint7_linear" x1="-215.065" y1="83.9408" x2="187.089" y2="84.0398" gradientUnits="userSpaceOnUse">
<stop stop-color="#8257E6"/>
<stop offset="0.526042" stop-color="#4763FF"/>
<stop offset="1" stop-color="#04D361"/>
</linearGradient>
<linearGradient id="paint8_linear" x1="-215.065" y1="83.9408" x2="187.089" y2="84.0398" gradientUnits="userSpaceOnUse">
<stop stop-color="#8257E6"/>
<stop offset="0.526042" stop-color="#4763FF"/>
<stop offset="1" stop-color="#04D361"/>
</linearGradient>
<linearGradient id="paint9_linear" x1="-215.065" y1="83.9408" x2="187.089" y2="84.0398" gradientUnits="userSpaceOnUse">
<stop stop-color="#8257E6"/>
<stop offset="0.526042" stop-color="#4763FF"/>
<stop offset="1" stop-color="#04D361"/>
</linearGradient>
</defs>
</svg>
